<svg width="30" height="30" xmlns="http://www.w3.org/2000/svg">

 <g>
  <title>background</title>
  <rect fill="none" id="canvas_background" height="402" width="582" y="-1" x="-1"/>
 </g>
 <g>
  <title>Layer 1</title>
  <path stroke="null" fill="#97bf04" id="svg_1" d="m14.971292,0.071734c-8.228281,0 -14.899558,6.671277 -14.899558,14.899558c0,8.228281 6.671277,14.899558 14.899558,14.899558s14.899558,-6.671277 14.899558,-14.899558c0,-8.228281 -6.671277,-14.899558 -14.899558,-14.899558zm7.449779,16.141188l-6.208149,0l0,6.208149c0,0.686621 -0.55625,1.24163 -1.24163,1.24163s-1.24163,-0.555009 -1.24163,-1.24163l0,-6.208149l-6.208149,0c-0.68538,0 -1.24163,-0.555009 -1.24163,-1.24163s0.55625,-1.24163 1.24163,-1.24163l6.208149,0l0,-6.208149c0,-0.686621 0.55625,-1.24163 1.24163,-1.24163s1.24163,0.555009 1.24163,1.24163l0,6.208149l6.208149,0c0.68538,0 1.24163,0.555009 1.24163,1.24163s-0.55625,1.24163 -1.24163,1.24163z"/>
 </g>
</svg>